<svg version="1.1" id="Layer_1" xmlns="http://www.w3.org/2000/svg" xmlns:xlink="http://www.w3.org/1999/xlink" x="0px" y="0px"
	 width="100%" viewBox="0 0 866 650" enable-background="new 0 0 866 650" xml:space="preserve">
<path fill="#FEFFFF" opacity="1.000000" stroke="none" 
	d="
M459.000000,651.000000 
	C306.000000,651.000000 153.500000,651.000000 1.000000,651.000000 
	C1.000000,434.333344 1.000000,217.666672 1.000000,1.000000 
	C289.666656,1.000000 578.333313,1.000000 867.000000,1.000000 
	C867.000000,217.666672 867.000000,434.333344 867.000000,651.000000 
	C731.166687,651.000000 595.333313,651.000000 459.000000,651.000000 
M516.621155,166.887115 
	C500.824493,127.856087 485.173920,88.764969 469.158417,49.823944 
	C462.857880,34.504360 450.975250,26.097746 434.282898,26.058119 
	C417.402649,26.018045 405.348969,34.371304 398.996155,49.949726 
	C377.507660,102.644287 356.204254,155.414871 335.066528,208.251007 
	C333.132477,213.085358 330.450867,214.634720 325.551971,214.898056 
	C309.603241,215.755356 293.673615,216.986893 277.743347,218.164566 
	C251.198517,220.126938 224.659393,222.166306 198.116821,224.159225 
	C183.346390,225.268265 168.551102,226.109467 153.808487,227.508514 
	C138.492188,228.962021 127.486923,236.767349 122.598282,251.611633 
	C117.596535,266.799377 120.926041,280.501740 132.911499,291.160553 
	C149.020660,305.486603 165.677689,319.196533 182.095963,333.175140 
	C210.112808,357.028931 238.107315,380.909119 266.180573,404.696350 
	C268.349609,406.534271 269.231354,408.134521 268.435211,411.061462 
	C265.554352,421.653015 262.923309,432.313232 260.255859,442.962006 
	C248.857208,488.466400 237.423508,533.962158 226.125351,579.491577 
	C222.407959,594.471985 228.766647,609.947876 242.192780,619.628784 
	C253.767166,627.974487 269.851746,628.199341 282.679840,620.308350 
	C331.466553,590.297913 380.308716,560.377258 429.002960,530.217590 
	C433.103760,527.677734 435.908386,528.076172 439.714203,530.443542 
	C466.435089,547.064514 493.275635,563.493286 520.086609,579.969299 
	C542.780701,593.915405 565.263306,608.224243 588.253906,621.663513 
	C608.562988,633.535217 635.296204,622.359070 641.937439,599.839539 
	C644.785889,590.180908 642.531921,580.751526 640.157837,571.314270 
	C626.762695,518.066467 613.498657,464.785736 600.061523,411.548645 
	C599.248657,408.328003 599.836365,406.463898 602.374390,404.337646 
	C646.373535,367.476990 690.055908,330.233246 734.363403,293.748322 
	C747.994873,282.523529 748.929199,268.401825 746.266296,253.601578 
	C743.764709,239.697388 730.637146,229.444839 716.462036,227.747177 
	C710.355042,227.015778 704.203491,226.641159 698.066833,226.174713 
	C671.033142,224.119873 644.001404,222.035675 616.961243,220.068253 
	C591.576843,218.221313 566.186523,216.450073 540.788513,214.803619 
	C537.376953,214.582458 535.400940,213.543655 534.093079,210.205048 
	C528.508057,195.947449 522.661865,181.792160 516.621155,166.887115 
z"/>
<path fill="#02B1F3" opacity="1.000000" stroke="none" 
	d="
M516.765991,167.243332 
	C522.661865,181.792160 528.508057,195.947449 534.093079,210.205048 
	C535.400940,213.543655 537.376953,214.582458 540.788513,214.803619 
	C566.186523,216.450073 591.576843,218.221313 616.961243,220.068253 
	C644.001404,222.035675 671.033142,224.119873 698.066833,226.174713 
	C704.203491,226.641159 710.355042,227.015778 716.462036,227.747177 
	C730.637146,229.444839 743.764709,239.697388 746.266296,253.601578 
	C748.929199,268.401825 747.994873,282.523529 734.363403,293.748322 
	C690.055908,330.233246 646.373535,367.476990 602.374390,404.337646 
	C599.836365,406.463898 599.248657,408.328003 600.061523,411.548645 
	C613.498657,464.785736 626.762695,518.066467 640.157837,571.314270 
	C642.531921,580.751526 644.785889,590.180908 641.937439,599.839539 
	C635.296204,622.359070 608.562988,633.535217 588.253906,621.663513 
	C565.263306,608.224243 542.780701,593.915405 520.086609,579.969299 
	C493.275635,563.493286 466.435089,547.064514 439.714203,530.443542 
	C435.908386,528.076172 433.103760,527.677734 429.002960,530.217590 
	C380.308716,560.377258 331.466553,590.297913 282.679840,620.308350 
	C269.851746,628.199341 253.767166,627.974487 242.192780,619.628784 
	C228.766647,609.947876 222.407959,594.471985 226.125351,579.491577 
	C237.423508,533.962158 248.857208,488.466400 260.255859,442.962006 
	C262.923309,432.313232 265.554352,421.653015 268.435211,411.061462 
	C269.231354,408.134521 268.349609,406.534271 266.180573,404.696350 
	C238.107315,380.909119 210.112808,357.028931 182.095963,333.175140 
	C165.677689,319.196533 149.020660,305.486603 132.911499,291.160553 
	C120.926041,280.501740 117.596535,266.799377 122.598282,251.611633 
	C127.486923,236.767349 138.492188,228.962021 153.808487,227.508514 
	C168.551102,226.109467 183.346390,225.268265 198.116821,224.159225 
	C224.659393,222.166306 251.198517,220.126938 277.743347,218.164566 
	C293.673615,216.986893 309.603241,215.755356 325.551971,214.898056 
	C330.450867,214.634720 333.132477,213.085358 335.066528,208.251007 
	C356.204254,155.414871 377.507660,102.644287 398.996155,49.949726 
	C405.348969,34.371304 417.402649,26.018045 434.282898,26.058119 
	C450.975250,26.097746 462.857880,34.504360 469.158417,49.823944 
	C485.173920,88.764969 500.824493,127.856087 516.765991,167.243332 
z"/>
</svg>